<svg width="22" height="22" viewBox="0 0 22 22" fill="none" xmlns="http://www.w3.org/2000/svg">
<g clip-path="url(#clip0_62_56)">
<path d="M20.5674 1.76214C19.7595 0.954238 18.6853 0.509277 17.5427 0.509277C16.4002 0.509277 15.3261 0.954238 14.5181 1.76214L1.03974 15.2405C-0.346579 16.6268 -0.346579 18.8826 1.03974 20.2689C1.73295 20.962 2.64346 21.3086 3.55391 21.3086C4.46441 21.3086 5.37497 20.962 6.06813 20.2689L17.9587 8.37842C19.0426 7.29436 19.0426 5.53051 17.9586 4.44644C17.4335 3.92128 16.7353 3.63213 15.9926 3.63213C15.2499 3.63213 14.5517 3.92133 14.0266 4.44644L6.54073 11.9324L7.07007 12.4617L14.556 4.97578C14.9397 4.59204 15.4499 4.38068 15.9926 4.38068C16.5353 4.38068 17.0456 4.59204 17.4293 4.97578C18.2215 5.76796 18.2215 7.05696 17.4293 7.84914L5.53885 19.7396C4.44436 20.834 2.66356 20.834 1.56907 19.7396C0.474528 18.6451 0.474528 16.8643 1.56907 15.7698L15.0475 2.29142C15.714 1.62489 16.6001 1.25783 17.5427 1.25783C18.4853 1.25783 19.3715 1.62489 20.038 2.29142C21.4139 3.66731 21.4139 5.90612 20.038 7.28201L10.9642 16.3558L11.4935 16.8851L20.5674 7.81129C22.2351 6.14357 22.2351 3.42991 20.5674 1.76214Z" fill="#227AAC"/>
</g>
<defs>
<clipPath id="clip0_62_56">
<rect width="21.8182" height="21.8182" fill="white"/>
</clipPath>
</defs>
</svg>
