<svg width="16" height="16" viewBox="0 0 16 16" fill="none" xmlns="http://www.w3.org/2000/svg">
<path d="M4.16678 1.28235C3.91505 1.28235 3.71476 1.47302 3.71476 1.70669V4.48796C3.71476 4.72163 3.91505 4.90768 4.16678 4.90768H4.41123C4.66296 4.90768 4.86786 4.72163 4.86786 4.48796V1.70669C4.86786 1.47302 4.66296 1.28235 4.41123 1.28235H4.16678ZM11.565 1.28235C11.3133 1.28235 11.1084 1.47302 11.1084 1.70669V4.48796C11.1084 4.72163 11.3133 4.90768 11.565 4.90768H11.8049C12.0566 4.90768 12.2615 4.72163 12.2615 4.48796V1.70669C12.2615 1.47302 12.0566 1.28235 11.8049 1.28235H11.565ZM2.29415 3.3118C1.47998 3.3118 0.8228 3.95512 0.8228 4.75547V13.2423C0.8228 14.0426 1.47998 14.6905 2.29415 14.6905H13.6821C14.4963 14.6905 15.1535 14.0426 15.1535 13.2423V4.75547C15.1535 3.95512 14.4963 3.3118 13.6821 3.3118H12.5659V4.72319C12.5659 5.08066 12.2546 5.36892 11.8695 5.36892H11.5005C11.1154 5.36892 10.804 5.08066 10.804 4.72319V3.3118H5.17228V4.72319C5.17228 5.08066 4.8609 5.36892 4.47581 5.36892H4.1022C3.71711 5.36892 3.41035 5.08066 3.41035 4.72319V3.3118H2.29415ZM1.74528 7.33841H14.2264V12.6888C14.2264 13.2275 13.7965 13.6574 13.2578 13.6574H2.71849C2.17975 13.6574 1.74528 13.2275 1.74528 12.6888V7.33841Z" fill="#C1CAD2"/>
</svg>
