<svg width="32" height="32" viewBox="0 0 32 32" fill="none" xmlns="http://www.w3.org/2000/svg">
<g clip-path="url(#clip0_32_285)">
<path d="M24.7671 0H3.18333C1.42727 0 0 1.22025 0 2.71986V30.6002C0 31.0639 0.268436 31.496 0.715676 31.757C1.16292 32.018 1.7328 32.0728 2.23791 31.902L13.9738 27.9372L25.7112 31.902C25.904 31.9679 26.1084 31.9993 26.3114 31.9993C26.6344 31.9993 26.9566 31.9177 27.2305 31.7576C27.6795 31.4973 27.9466 31.0644 27.9466 30.6015V2.71986C27.948 1.22025 26.5207 0 24.7671 0ZM19.4287 15.3913L16.5767 17.1629L17.6654 20.0298C17.7384 20.2219 17.6586 20.4328 17.4679 20.5511C17.3711 20.6098 17.2595 20.6402 17.1477 20.6402C17.0353 20.6402 16.923 20.6099 16.8262 20.5511L13.9746 18.7798L11.1228 20.5511C10.9318 20.6693 10.6729 20.6693 10.4824 20.5511C10.292 20.4328 10.2095 20.2225 10.2835 20.0298L11.3738 17.1629L8.52129 15.3913C8.33023 15.2725 8.25047 15.0625 8.32297 14.87C8.39558 14.6778 8.60502 14.5473 8.84214 14.5473H12.367L13.4574 11.6819C13.6018 11.2972 14.3471 11.2972 14.4943 11.6819L15.5833 14.5473H19.1089C19.3454 14.5473 19.5538 14.6778 19.6273 14.87C19.6998 15.0619 19.6194 15.2725 19.4287 15.3913Z" fill="#E3BA26"/>
</g>
<defs>
<clipPath id="clip0_32_285">
<rect width="32" height="32" fill="white"/>
</clipPath>
</defs>
</svg>
